
(all smile encodes and repacks are hosted)
(on high speed servers / boxes trusted,  )
{clean and verified sources              )

Thanks to Atomicservers for the seedboxes provided




                          oooo$$$$$$$$$$$$oooo
                      oo$$$$$$$$$$$$$$$$$$$$$$$$o
                   oo$$$$$$$$$$$$$$$$$$$$$$$$$$$$$$o         o$   $$ o$
   o $ oo        o$$$$$$$$$$$$$$$$$$$$$$$$$$$$$$$$$$$$o       $$ $$ $$o$
oo $ $ "$      o$$$$$$$$$    $$$$$$$$$$$$$    $$$$$$$$$o       $$$o$$o$
"$$$$$$o$     o$$$$$$$$$      $$$$$$$$$$$      $$$$$$$$$$o    $$$$$$$$
  $$$$$$$    $$$$$$$$$$$      $$$$$$$$$$$      $$$$$$$$$$$$$$$$$$$$$$$
  $$$$$$$$$$$$$$$$$$$$$$$    $$$$$$$$$$$$$    $$$$$$$$$$$$$$  """$$$
      "$$$
    $$$   o$$$$$$$$$$$$$$$$$$$$$$$$$$$$$$$$$$$$$$$$$$$$$$$$$$     "$$$o
   o$$"   $$$$$$$$$$$$$$$$$$$$$$$$$$$$$$$$$$$$$$$$$$$$$$$$$$$       $$$o
   $$$    $$$$$$$$$$$$$$$$$$$$$$$$$$$$$$$$$$$$$$$$$$$$$" "$$$$$$ooooo$$$$o
  o$$$oooo$$$$$  $$$$$$$$$$$$$$$$$$$$$$$$$$$$$$$$$$$$$   o$$$$$$$$$$$$$$$$$
  $$$$$$$$"$$$$   $$$$$$$$$$$$$$$$$$$$$$$$$$$$$$$$$$    
      $$$$    "$$$$$$$$$$$$$$$$$$$$$$$$$$$$"      o$$$
            "$$$o     """$$$$$$$$$$$$$$$$$$"$$"         $$$
              $$$o                   o$$$
               $$$$o                                o$$$"
                "$$$$o      o$$$$$$o"$$$$o        o$$$$
                  "$$$$$oo     ""$$$$o$$$$$o   o$$$$""
                     ""$$$$$oooo  "$$$o$$$$$$$$$"""
                        ""$$$$$$$oo $$$$$$$$$$
                               
                                    $$$$$$$$$$$$
                                     $$$$$$$$$$"

                                                    .:::.
            ....                                    :::::
          ,;' .;:                ::  ..:            `:::'
          ::.      ..:,:;.,:;.    .   ::   .::::.    `:'
           '''::,   ::  ::  ::  `::   ::  ;:   .::    :
         ,:';  ::;  ::  ::  ::   ::   ::  ::,::''.    .
         `:,,,,;;' ,;; ,;;, ;;, ,;;, ,;;, `:,,,,:'   :;:

          Another Fine Release Brought to you from - SMiL3


*************************************************************************
           Lakeview.Terrace.2009.DvDrip.XviD.AC3-SMiL3
************************************************************************* 
http://img27.imageshack.us/img27/4383/filmalakeviewterrace105.jpg


[b]
[color=yellow]Info[/color]

Ripper ...........: SMiL3
Video Codec.......: XVID
Release Date......: 2009
Audio Codec.......: AC3
Runtime...........: 1h 50mn
Subtitles.........: None
Language..........: ENGLISH
Resolution........: 640*256

[color=yellow]Video[/color]
ID                               : 0
Format                           : MPEG-4 Visual
Format profile                   : Advanced Simple@L5
Format settings, BVOP            : Yes
Format settings, QPel            : No
Format settings, GMC             : No warppoints
Format settings, Matrix          : Default (H.263)
Muxing mode                      : Packed bitstream
Codec ID                         : XVID
Codec ID/Hint                    : XviD
Duration                         : 1h 50mn
Bit rate                         : 704 Kbps
Width                            : 640 pixels
Height                           : 256 pixels
Display aspect ratio             : 2.500
Frame rate                       : 29.970 fps
Color space                      : YUV
Chroma subsampling               : 4:2:0
Bit depth                        : 8 bits
Scan type                        : Progressive
Bits/(Pixel*Frame)               : 0.143
Stream size                      : 556 MiB (61%)
Writing library                  : XviD 1.2.1 (UTC 2008-12-04)

[color=yellow]Audio[/color]
ID                               : 1
Format                           : AC-3
Format/Info                      : Audio Coding 3
Mode extension                   : CM (complete main)
Codec ID                         : 2000
Duration                         : 1h 50mn
Bit rate mode                    : Constant
Bit rate                         : 448 Kbps
Channel(s)                       : 6 channels
Channel positions                : Front: L C R, Side: L R, LFE
Sampling rate                    : 48.0 KHz
Stream size                      : 354 MiB (39%)
Alignment                        : Aligned on interleaves
Interleave, duration             : 64 ms (1.92 video frames)
Interleave, preload duration     : 192 ms
Title                            : VTS_01_1 T01 3_2ch 448Kbps DELAY 0ms




Screens


Ripper note

Don't want it? Don't download it.
Have something we can use? LINE, CAM's, SCR's, DVD or BluRay? --> smil3rg[at]hushmail.com

*ANOTHER SMiL3 RELEASE


[/b]